<svg width="26" height="15" viewBox="0 0 26 15" fill="none" xmlns="http://www.w3.org/2000/svg">
<path fill-rule="evenodd" clip-rule="evenodd" d="M25.3882 1.04092C25.5809 0.453735 25.3882 0.02669 24.5346 0.02669H21.6983C20.9824 0.02669 20.652 0.400356 20.4592 0.800712C20.4592 0.800712 18.9998 4.21708 16.9622 6.43238C16.3013 7.07295 15.9984 7.28648 15.6404 7.28648C15.4477 7.28648 15.1999 7.07296 15.1999 6.48577V1.01423C15.1999 0.320284 14.9796 0 14.3738 0H9.91295C9.47238 0 9.19702 0.320283 9.19702 0.640568C9.19702 1.30783 10.2158 1.46797 10.326 3.3363V7.39324C10.326 8.27402 10.1608 8.43416 9.80281 8.43416C8.83905 8.43416 6.49849 4.9911 5.09416 1.06762C4.8188 0.293594 4.54344 0 3.8275 0H0.963759C0.13768 0 0 0.373664 0 0.77402C0 1.49466 0.96376 5.12456 4.48837 9.92883C6.82892 13.2117 10.1608 14.9733 13.1622 14.9733C14.9796 14.9733 15.1999 14.573 15.1999 13.9057V11.4235C15.1999 10.6228 15.3651 10.4893 15.9433 10.4893C16.3564 10.4893 17.0998 10.7028 18.7795 12.2776C20.7071 14.1459 21.0375 15 22.1114 15H24.9476C25.7737 15 26.1592 14.5996 25.9389 13.8256C25.6911 13.0516 24.7548 11.9306 23.5433 10.5961C22.8824 9.84875 21.8911 9.02135 21.5882 8.621C21.1752 8.08719 21.2853 7.87367 21.5882 7.39324C21.5607 7.39324 25.0302 2.64235 25.3882 1.04092Z" fill="#192A81"/>
</svg>
