<svg width="24" height="24" viewBox="0 0 24 24" fill="none" xmlns="http://www.w3.org/2000/svg">
<path fill-rule="evenodd" clip-rule="evenodd" d="M9.6 15.2449V7.89779L15.835 11.5715L9.6 15.2449ZM23.4984 5.67669C23.2224 4.62319 22.4093 3.79325 21.3767 3.51163C19.505 3 11.9999 3 11.9999 3C11.9999 3 4.49498 3 2.62334 3.51163C1.59071 3.79325 0.777578 4.62319 0.501593 5.67669C0 7.58674 0 11.5713 0 11.5713C0 11.5713 0 15.5561 0.501593 17.466C0.777578 18.5195 1.59071 19.3496 2.62334 19.631C4.49498 20.1429 11.9999 20.1429 11.9999 20.1429C11.9999 20.1429 19.505 20.1429 21.3767 19.631C22.4093 19.3496 23.2224 18.5195 23.4984 17.466C24 15.5561 24 11.5713 24 11.5713C24 11.5713 24 7.58674 23.4984 5.67669Z" fill="#FF0000"/>
</svg>
