<svg width="24" height="24" viewBox="0 0 24 24" fill="none" xmlns="http://www.w3.org/2000/svg">
<path fill-rule="evenodd" clip-rule="evenodd" d="M4 0C1.79086 0 0 1.79086 0 4V20C0 22.2091 1.79086 24 4 24H10.1241V14.7186H7V11.0855H10.1241V8.41241C10.1241 5.3131 12.011 3.62483 14.7793 3.62483C15.7122 3.62265 16.6445 3.66961 17.5724 3.76552V7.00966H15.6483C14.1421 7.00966 13.8483 7.72138 13.8483 8.77241V11.0855H17.4483L16.9807 14.7186H13.8483V24H20C22.2091 24 24 22.2091 24 20V4C24 1.79086 22.2091 0 20 0H4Z" fill="#3C5A99"/>
</svg>
